PathFileType	4	(X/Y/Z)	C:/Users/beibeiliu/ov580/test_trc/capture2\sequence.10_training_dense_left.trc
DataRate	CameraRate	NumFrames	NumMarkers	Units	OrigDataRate	OrigDataStartFrame	OrigNumFrames
120	120	11	19	mm	120	44	349
Frame#	Time	ThumbCMC			ThumbMCP			ThumbIP			ThumbTip			IndexMCP			IndexPIP			IndexTip			MiddleMCP			MiddlePIP			MiddleTip			RingMCP			RingPIP			RingTip			PinkyMCP			PinkyPIP			PinkyTip			BackHand1			BackHand2			BackHand3	
		X0	Y0	Z0	X1	Y1	Z1	X2	Y2	Z2	X3	Y3	Z3	X4	Y4	Z4	X5	Y5	Z5	X6	Y6	Z6	X7	Y7	Z7	X8	Y8	Z8	X9	Y9	Z9	X10	Y10	Z10	X11	Y11	Z11	X12	Y12	Z12	X13	Y13	Z13	X14	Y14	Z14	X15	Y15	Z15	X16	Y16	Z16	X17	Y17	Z17	X18	Y18	Z18	
43	0.358333	-129.538	56.466	-40.9694	-106.316	46.844	-59.1176	-92.1358	41.381	-80.5883	-90.7773	23.7644	-105.412	-133.867	40.9358	-113.73	-105.998	30.9248	-118.729	-100.779	26.6077	-84.6915	-136.515	20.1409	-110.881	-105.214	10.7362	-100.638	-114.524	18.6469	-67.7619	-135.976	2.84683	-104.154	-113.22	-3.3092	-87.8588	-126.411	11.7559	-57.4207	-142.359	-8.8605	-93.4976	-121.152	-9.86018	-74.2795	-130.715	8.13193	-50.9117	-179.096	22.9053	-68.7264	-185.75	22.6335	-35.5265	-167.172	52.8079	-50.0385	
44	0.366667	-131.735	53.8422	-38.88	-102.272	48.372	-57.7057	-88.0371	42.2575	-84.8013	-92.1841	24.195	-102.48	-131.38	44.1304	-111.502	-105.416	29.0556	-117.112	-102.557	27.5901	-80.7813	-134.742	23.7019	-110.011	-107.153	8.75831	-102.728	-112.96	20.0841	-66.2885	-134.674	1.40925	-103.476	-112.218	-3.61287	-86.8934	-125.816	11.9079	-56.5919	-145.811	-8.94929	-91.7123	-120.566	-9.1685	-71.0286	-132.546	12.6658	-50.4382	-178.388	22.3979	-66.4395	-182.398	27.7469	-36.5648	-166.359	54.4786	-53.8021	
45	0.375	-128.378	55.5525	-40.8158	-101.359	47.9575	-59.7226	-89.5109	40.3699	-79.6111	-87.5146	26.552	-99.4356	-128.141	44.333	-112.264	-101.047	30.0533	-112.842	-101.585	29.8458	-79.5795	-130.158	22.1162	-111.447	-105.316	7.26972	-97.1563	-112.21	18.8626	-65.4396	-134.454	6.40882	-103.547	-111.324	-2.05508	-86.8094	-126.011	14.4813	-56.2193	-140.258	-10.1929	-92.3381	-120.54	-11.0444	-71.0989	-129.777	8.8531	-49.2331	-179.247	20.1057	-66.3958	-183.449	29.2495	-35.2457	-165.231	53.3765	-51.6768	
46	0.383333	-126.766	57.7971	-43.5618	-98.7898	50.2138	-58.0283	-87.6889	41.5643	-80.3615	-90.5306	21.8301	-100.882	-126.841	44.5738	-111.824	-101.097	27.6664	-113.894	-104.548	26.7673	-78.4161	-128.469	23.2874	-111.984	-101.843	9.32318	-96.4606	-112.681	18.3898	-65.0154	-136.322	0.799323	-102.533	-109.678	-1.79743	-85.2236	-124.11	10.4802	-55.7862	-139.159	-10.8349	-92.3511	-119.526	-10.6717	-74.6064	-130.768	7.25119	-50.4959	-176.488	24.0894	-68.9266	-182.243	27.4292	-35.5071	-163.185	54.2063	-52.8684	
47	0.391667	-125.973	56.4913	-41.4639	-102.687	45.5018	-58.4034	-84.6524	41.2713	-82.8042	-85.2315	23.3457	-101.769	-124.215	41.2548	-113.625	-99.9325	28.1067	-112.374	-101.947	29.1645	-76.6248	-131.398	21.0434	-109.997	-104.119	4.89833	-97.6677	-112.718	18.6439	-64.0351	-132.145	-0.581175	-102.423	-110.593	-3.21263	-84.0822	-125.357	11.1162	-54.848	-142.301	-9.80812	-91.1507	-120.64	-11.4847	-70.6137	-134.024	8.72547	-49.3039	-176.386	21.1578	-65.6243	-182.331	28.9225	-39.3257	-164.494	53.7797	-53.463	
48	0.4	-128.493	54.4081	-38.4851	-103.162	44.0736	-56.3982	-84.7218	40.345	-80.9265	-89.9043	19.5964	-100.066	-125.528	40.7369	-112.016	-100.234	23.5999	-109.781	-104.213	26.0121	-75.7142	-132.001	17.7862	-109.311	-102.654	7.06619	-96.8565	-113.47	19.9445	-63.8063	-135.047	2.58885	-100.497	-111.956	-7.6097	-79.9662	-126.623	14.4577	-56.5895	-139.956	-14.5158	-90.5863	-120.299	-10.6701	-68.4982	-132.451	5.9491	-48.7608	-178.898	19.1699	-65.8631	-182.657	24.9883	-39.6074	-167.294	48.6865	-51.8549	
49	0.408333	-126.421	54.3158	-42.0065	-104.716	42.9992	-56.7548	-88.792	37.2138	-79.7515	-88.8215	18.9019	-101.54	-124.677	36.8101	-112.638	-99.3219	23.1051	-106.312	-104.447	26.6263	-75.3566	-131.122	16.2234	-110.481	-105.557	2.98047	-97.1697	-118.246	14.3296	-61.9946	-135.159	-2.81365	-101.263	-111.781	-6.49332	-79.8574	-127.237	8.46625	-54.1107	-146.072	-11.6772	-89.5186	-121.302	-12.4248	-71.6017	-134.866	5.0034	-44.9368	-179.315	18.669	-68.6958	-181.814	25.4193	-37.2726	-166.451	48.4901	-53.1787	
50	0.416667	-129.427	51.7073	-37.1135	-104.376	41.9534	-57.6161	-90.2176	34.9831	-78.5119	-86.7652	19.1142	-101.538	-127.368	38.1087	-108.632	-101.986	17.8806	-106.284	-104.14	24.2914	-75.1305	-132.785	13.7342	-108.885	-106.276	0.598992	-96.4882	-116.428	10.4847	-63.5173	-137.778	-2.76906	-100.542	-113.492	-10.2974	-78.3572	-129.741	8.97721	-54.2296	-142.65	-16.6977	-88.6765	-122.525	-18.1932	-68.7834	-132.364	3.41208	-47.0888	-180.421	16.8926	-65.9291	-186.363	21.6136	-38.0482	-168.449	46.4693	-53.4168	
51	0.425	-129.51	50.8922	-37.003	-102.305	42.8988	-55.3785	-91.1506	33.4759	-78.3837	-88.7737	16.3244	-103.179	-128.223	34.267	-110.546	-102.572	18.8176	-107.136	-108.161	23.3853	-73.1162	-133.626	13.6205	-108.637	-106.311	2.14999	-99.8941	-119.654	12.6506	-61.1613	-136.728	-2.09095	-100.732	-113.097	-8.02372	-80.6153	-128.14	4.5534	-54.6185	-146.835	-19.52	-88.4516	-122.895	-15.5141	-67.3886	-135.28	4.84126	-49.6891	-179.405	16.9306	-67.2516	-186.585	19.0403	-36.3809	-168.098	47.9998	-54.1303	
52	0.433333	-133.056	48.0498	-40.8816	-107.126	40.925	-54.8663	-89.7543	34.0244	-84.4785	-90.6884	15.7946	-102.224	-131.088	31.9399	-110.087	-104.872	16.2422	-108.112	-110.156	20.8854	-74.1197	-132.846	9.25852	-111.001	-107.066	0.563806	-99.2424	-116.145	14.1139	-64.3215	-140.996	-7.08048	-99.0613	-114.697	-9.72553	-81.4554	-129.55	5.52845	-54.2416	-146.451	-19.9473	-87.9804	-124.297	-15.862	-67.1258	-138.686	4.45271	-44.4558	-179.138	15.5248	-68.1147	-189.47	19.1231	-34.5697	-168.406	46.8675	-56.2071	
53	0.441667	-132.874	49.2077	-38.669	-106.386	41.1132	-60.3231	-90.5836	33.8509	-83.5729	-92.6976	15.5457	-100.027	-132.292	32.1788	-110.218	-104.674	16.8948	-107.485	-107.342	20.4029	-76.2659	-132.214	12.4563	-111.17	-107.351	-0.419744	-95.8876	-118.923	11.6407	-63.6409	-137.844	-3.77961	-100.899	-116.45	-11.9145	-82.0935	-126.068	5.20948	-55.9274	-147.296	-17.4884	-89.6004	-124.197	-15.4166	-69.9474	-135.793	3.00326	-47.1406	-184.775	13.2076	-65.1875	-189.194	19.3772	-36.9344	-169.224	46.7781	-56.6741	
